<svg xmlns="http://www.w3.org/2000/svg" width="95" height="61"><path fill="#fff" d="M94.5 57.5c0 1.7-1.3 3-3 3h-88c-1.6 0-3-1.3-3-3v-54c0-1.7 1.4-3 3-3h88c1.7 0 3 1.3 3 3v54z"/><path stroke="#BBBDBF" stroke-miterlimit="10" d="M94.5 57.5c0 1.7-1.3 3-3 3h-88c-1.6 0-3-1.3-3-3v-54c0-1.7 1.4-3 3-3h88c1.7 0 3 1.3 3 3v54z" fill="none"/><path fill-rule="evenodd" clip-rule="evenodd" fill="#2A97D8" d="M67.1 25c-1.8 0-3.2.5-4.3.7l-.3 2.7c.5-.3 2.2-.7 3.7-.8 1.4 0 2.2.3 2 1.5-4.2 0-7 .9-7.6 3.6-.8 4.7 4.3 4.5 6.3 2.5l-.2 1.1h3.7l1.6-7.4c.6-3.2-2.3-3.9-4.9-3.9zm.2 7.6c-.2 1-1 1.4-2 1.5-.8 0-1.6-.7-1-1.6.4-.7 1.6-.9 2.3-.9h.9c0 .3-.1.6-.2 1z"/><polygon fill-rule="evenodd" clip-rule="evenodd" fill="#2A97D8" points="75.1,22.1 72,36.3 75.8,36.3 78.9,22.1 75.1,22.1 75.1,22.1"/><path fill-rule="evenodd" clip-rule="evenodd" fill="#2A97D8" d="M57.7 22.1h-7l-3.1 14.2h4l1-4.7h2.9c2.8 0 5.2-1.7 5.8-4.7.8-3.3-1.6-4.8-3.6-4.8zm-.2 4.8c-.3 1.1-1.3 1.9-2.4 1.9h-1.9l.8-3.9h2c1.2.1 1.8 1 1.5 2z"/><path fill-rule="evenodd" clip-rule="evenodd" fill="#10549B" d="M30.7 25c-1.8 0-3.2.5-4.2.7l-.3 2.7c.5-.3 2.2-.7 3.6-.8 1.4 0 2.2.3 2 1.5-4.1 0-6.9.9-7.5 3.6-.8 4.7 4.2 4.5 6.2 2.5l-.2 1.1h3.7l1.6-7.4c.5-3.2-2.3-3.9-4.9-3.9zm.3 7.6c-.2 1-1 1.4-2 1.5-.8 0-1.5-.7-1-1.6.4-.7 1.6-.9 2.2-.9h.9c0 .3-.1.6-.1 1z"/><polygon fill-rule="evenodd" clip-rule="evenodd" fill="#10549B" points="37.1,25.2 40.8,25.2 41.4,31.8 45.1,25.2 49,25.2 40.1,41 35.9,41 38.6,36.4 37.1,25.2 37.1,25.2"/><path fill-rule="evenodd" clip-rule="evenodd" fill="#10549B" d="M21.4 22.1h-7l-3.1 14.2h4.1l1-4.7h2.9c2.8 0 5.1-1.7 5.8-4.7.7-3.3-1.7-4.8-3.7-4.8zm-.1 4.8c-.3 1.1-1.3 2-2.4 2h-1.9l.9-3.9h2c1 0 1.7.9 1.4 1.9z"/><path fill="#2A97D8" d="M80.7 23.9v-1.7h-.6v-.2h1.5v.2h-.6v1.7h-.3z"/><path fill="#2A97D8" d="M81.9 23.9v-1.9h.4l.5 1.3.1.3.1-.3.5-1.3h.3v1.9h-.2v-1.6l-.6 1.6h-.2l-.5-1.6v1.6h-.4z"/></svg>