<svg width="95" height="61" xmlns="http://www.w3.org/2000/svg"><title>card-mastercard</title><desc>Created with Sketch.</desc><g transform="translate(-754 -589) translate(754 589)" fill="none"><g id="Shape"><path d="M94.5 57.5c0 1.7-1.3 3-3 3h-88c-1.6 0-3-1.3-3-3v-54c0-1.7 1.4-3 3-3h88c1.7 0 3 1.3 3 3v54z" fill="#fff"/><path d="M94.5 57.5c0 1.7-1.3 3-3 3h-88c-1.6 0-3-1.3-3-3v-54c0-1.7 1.4-3 3-3h88c1.7 0 3 1.3 3 3v54z" stroke="#7D7D7D"/></g><g transform="translate(15 11)"><circle fill="#ED1C2E" cx="19.4" cy="19.5" r="19.4"/><path d="M45.6.1c-5 0-9.6 1.9-13.1 5-.7.6-1.4 1.3-2 2.1h3.9c.5.7 1 1.3 1.5 2.1h-6.9c-.4.7-.8 1.3-1.1 2.1h9.1c.3.7.6 1.4.8 2.1h-10.7l-.6 2.1h11.9c.3 1.3.4 2.7.4 4.1 0 2.2-.4 4.2-1 6.2h-10.7c.2.7.5 1.4.8 2.1h9.1c-.3.7-.7 1.4-1.1 2.1h-6.9c.5.7.9 1.4 1.5 2.1h3.9c-.6.7-1.3 1.4-2 2.1 3.4 3.1 8 5 13.1 5 10.7 0 19.4-8.7 19.4-19.4.1-11.1-8.6-19.8-19.3-19.8z" id="Shape" fill="#FCB131"/><path d="M62.4 30.3c0-.3.3-.6.6-.6s.6.3.6.6-.3.6-.6.6c-.3.1-.6-.2-.6-.6zm.6.5c.3 0 .5-.2.5-.5s-.2-.5-.5-.5-.5.2-.5.5.3.5.5.5zm0-.2h-.1v-.6h.30000000000000004l.1.1c0 .1 0 .1-.1.1l.1.2h-.4l.1.2zm0-.3h.2v-.2h-.2v.2z" id="Shape" fill="#FCB131"/><g transform="translate(1 14)"><g fill="#003473"><path d="M13.9 7.6h-.5c-1.2 0-1.8.4-1.8 1.2 0 .5.3.8.8.8.8 0 1.5-.8 1.5-2zm1.5 3.6h-1.8v-.8c-.5.7-1.2 1-2.2 1-1.1 0-1.9-.9-1.9-2.2 0-2 1.4-3.1 3.7-3.1.2 0 .5 0 .9.1.1-.3.1-.4.1-.5 0-.5-.4-.7-1.4-.7-1 0-1.9.2-2.2.4 0-.1.3-1.8.3-1.8 1.1-.3 1.7-.4 2.5-.4 1.8 0 2.8.8 2.8 2.4 0 .4-.1.9-.2 1.6-.1.9-.5 3.4-.6 4z"/><polygon points="8.7 11.2 6.6 11.2 7.8 3.6 5.1 11.2 3.7 11.2 3.5 3.7 2.2 11.2 0.2 11.2 1.9 1.3 4.9 1.3 5.1 6.9 7 1.3 10.3 1.3"/><path d="M47.2 7.6h-.5c-1.2 0-1.8.4-1.8 1.2 0 .5.3.8.8.8.8 0 1.4-.8 1.5-2zm1.5 3.6h-1.8v-.8c-.5.7-1.2 1-2.2 1-1.1 0-1.9-.9-1.9-2.2 0-2 1.4-3.1 3.7-3.1.2 0 .5 0 .9.1.1-.3.1-.4.1-.5 0-.5-.4-.7-1.4-.7-1 0-1.9.2-2.2.4 0-.1.3-1.8.3-1.8 1.1-.3 1.7-.4 2.5-.4 1.8 0 2.8.8 2.8 2.4 0 .4-.1.9-.2 1.6-.2.9-.6 3.4-.6 4z"/><path d="M24.8 11.1c-.6.2-1 .3-1.5.3-1.1 0-1.7-.6-1.7-1.8 0-.4.2-1.3.3-2.1.1-.7.9-5.5.9-5.5h2.1l-.2 1.2h1.3l-.3 1.9h-1.3c-.2 1.5-.6 3.4-.6 3.7 0 .4.2.6.7.6.2 0 .4 0 .6-.1l-.3 1.8z"/><path d="M31.3 11c-.7.2-1.4.3-2.2.3-2.4 0-3.6-1.2-3.6-3.6 0-2.7 1.6-4.8 3.7-4.8 1.7 0 2.8 1.1 2.8 2.9 0 .6-.1 1.2-.3 2h-4.2c-.1 1.2.6 1.6 1.8 1.6.7 0 1.4-.2 2.2-.5l-.2 2.1zm-1.2-4.7c0-.2.2-1.4-1-1.4-.7 0-1.1.5-1.3 1.4h2.3z"/><path d="M16.7 5.7c0 1 .5 1.7 1.6 2.2.9.4 1 .5 1 .9 0 .5-.4.7-1.2.7-.6 0-1.2-.1-1.9-.3 0 0-.3 1.8-.3 1.9.5.1.9.2 2.2.2 2.2 0 3.3-.8 3.3-2.7 0-1.1-.4-1.8-1.5-2.2-.9-.4-1-.5-1-.9s.4-.7 1-.7c.4 0 1 0 1.5.1l.3-1.9c-.5-.1-1.4-.2-1.9-.2-2.3.2-3.1 1.4-3.1 2.9z"/><path d="M41.5 3.2c.6 0 1.1.2 1.9.5l.3-2.1c-.3-.1-1.4-.8-2.3-.8-1.4 0-2.6.7-3.4 1.9-1.2-.4-1.7.4-2.3 1.2l-.6.1.1-.8h-1.9c-.3 2.5-.7 5-1.1 7.5l-.2.5h2.1c.4-2.3.5-3.8.7-4.8l.8-.4c.1-.4.5-.6 1.2-.6-.1.5-.2 1.1-.2 1.6 0 2.6 1.4 4.3 3.7 4.3.6 0 1.1-.1 1.9-.3l.4-2.2c-.7.3-1.3.5-1.8.5-1.2 0-2-.9-2-2.4 0-2.2 1.1-3.7 2.7-3.7z"/><path d="M59.4 1.3l-.5 2.8c-.6-.8-1.2-1.3-2-1.3-1.1 0-2 .8-2.7 2-.9-.2-1.8-.5-1.8-.5.1-.7.1-1.1.1-1.2h-1.9c-.3 2.5-.7 5-1.1 7.5l-.1.5h2.1c.3-1.9.5-3.4.7-4.6.7-.7 1.1-1.2 1.8-1.2-.3.8-.5 1.7-.5 2.6 0 2 1 3.3 2.5 3.3.8 0 1.4-.3 1.9-.9l-.1.7h2l1.6-9.9-2 .2zm-2.6 8c-.7 0-1.1-.5-1.1-1.6 0-1.6.7-2.7 1.6-2.7.7 0 1.1.6 1.1 1.6 0 1.6-.7 2.7-1.6 2.7z"/></g><g fill="#fff"><polygon points="9.3 10.6 7.2 10.6 8.4 3 5.7 10.6 4.3 10.6 4.1 3.1 2.8 10.6 0.8 10.6 2.5 0.8 5.5 0.8 5.6 6.9 7.7 0.8 10.9 0.8"/><path d="M14.5 7h-.5c-1.2 0-1.8.4-1.8 1.2 0 .5.3.8.8.8.9 0 1.5-.8 1.5-2zm1.5 3.6h-1.7v-.8c-.5.7-1.2 1-2.2 1-1.1 0-1.9-.9-1.9-2.2 0-2 1.4-3.1 3.7-3.1.2 0 .5 0 .9.1.1-.3.1-.4.1-.5 0-.5-.4-.7-1.4-.7-1 0-1.9.2-2.2.4 0-.1.3-1.8.3-1.8 1.1-.3 1.7-.4 2.5-.4 1.8 0 2.8.8 2.8 2.4 0 .4-.1.9-.2 1.6-.2.9-.6 3.4-.7 4z"/><path d="M44.4 1l-.4 2.2c-.8-.4-1.3-.5-1.9-.5-1.6 0-2.7 1.5-2.7 3.7 0 1.5.7 2.4 2 2.4.5 0 1.1-.2 1.8-.5l-.4 2.2c-.8.2-1.3.3-1.9.3-2.3 0-3.7-1.6-3.7-4.3 0-3.5 2-6 4.8-6 1 0 2 .4 2.4.5z"/><path d="M47.8 7h-.5c-1.2 0-1.8.4-1.8 1.2 0 .5.3.8.8.8.8 0 1.4-.8 1.5-2zm1.5 3.6h-1.8v-.8c-.5.7-1.2 1-2.2 1-1.1 0-1.9-.9-1.9-2.2 0-2 1.4-3.1 3.7-3.1.2 0 .5 0 .9.1.1-.3.1-.4.1-.5 0-.5-.4-.7-1.4-.7-1 0-1.9.2-2.2.4 0-.1.3-1.8.3-1.8 1.1-.3 1.7-.4 2.5-.4 1.8 0 2.8.8 2.8 2.4 0 .4-.1.9-.2 1.6-.1.9-.5 3.4-.6 4z"/><path d="M25.4 10.5c-.6.2-1 .3-1.5.3-1.1 0-1.7-.6-1.7-1.8 0-.4.2-1.3.3-2.1.1-.8.9-5.5.9-5.5h2.1l-.2 1.2h1.1l-.3 1.9h-1.1c-.2 1.5-.6 3.4-.6 3.7 0 .4.2.6.7.6.2 0 .4 0 .6-.1l-.3 1.8z"/><path d="M31.9 10.4c-.7.2-1.4.3-2.2.3-2.4 0-3.6-1.2-3.6-3.6 0-2.7 1.6-4.8 3.7-4.8 1.7 0 2.8 1.1 2.8 2.9 0 .6-.1 1.2-.3 2h-4.2c-.1 1.2.6 1.6 1.8 1.6.8 0 1.4-.2 2.2-.5l-.2 2.1zm-1.2-4.7c0-.2.2-1.4-1-1.4-.7 0-1.1.5-1.3 1.4h2.3z"/><path d="M17.3 5.1c0 1 .5 1.7 1.6 2.2.9.4 1 .5 1 .9 0 .5-.4.7-1.2.7-.6 0-1.2-.1-1.9-.3 0 0-.3 1.8-.3 1.9.5.1.9.2 2.2.2 2.2 0 3.3-.8 3.3-2.7 0-1.1-.4-1.8-1.5-2.2-.9-.4-1-.5-1-.9s.4-.7 1-.7c.4 0 1 0 1.5.1l.3-1.9c-.5-.1-1.4-.2-1.9-.2-2.3.2-3.1 1.5-3.1 2.9z"/><path d="M60.5 10.6h-2l.1-.7c-.6.6-1.2.9-1.9.9-1.5 0-2.5-1.3-2.5-3.3 0-2.7 1.6-4.9 3.4-4.9.8 0 1.4.3 2 1.1l.5-2.9h2.1l-1.7 9.8zm-3.1-1.8c1 0 1.7-1.1 1.7-2.7 0-1-.4-1.6-1.1-1.6-1 0-1.6 1.1-1.6 2.7-.1 1 .2 1.6 1 1.6z"/><path d="M51.2 2.6c-.3 2.5-.7 5-1.1 7.5l-.1.5h2.1c.8-4.9.9-5.9 2.1-5.7.2-1 .5-1.9.8-2.3-.9-.2-1.4.3-2 1.3.1-.4.1-.8.1-1.2 0-.1-1.9-.1-1.9-.1z"/><path d="M33.8 2.6c-.3 2.5-.7 5-1.1 7.5l-.1.5h2.1c.8-4.9.9-5.9 2.1-5.7.2-1 .5-1.9.8-2.3-.9-.2-1.4.3-2 1.3.1-.4.1-.8.1-1.2.1-.1-1.9-.1-1.9-.1z"/><path d="M61.4 10c0-.3.3-.6.6-.6s.6.3.6.6-.3.6-.6.6-.6-.3-.6-.6zm.6.5c.3 0 .5-.2.5-.5s-.2-.5-.5-.5-.5.2-.5.5c.1.3.3.5.5.5zm-.1-.2h-.1v-.6h.30000000000000004l.1.1c0 .1 0 .1-.1.1l.1.2h-.1l-.1-.1h-.1v.3zm0-.4h.2v-.2h-.2v.2z"/></g></g></g></g></svg>