<?xml version="1.0" encoding="utf-8"?>
<!-- Generator: Adobe Illustrator 17.0.0, SVG Export Plug-In . SVG Version: 6.00 Build 0)  -->
<!DOCTYPE svg PUBLIC "-//W3C//DTD SVG 1.1//EN" "http://www.w3.org/Graphics/SVG/1.1/DTD/svg11.dtd">
<svg version="1.1" id="Layer_1" xmlns="http://www.w3.org/2000/svg" xmlns:xlink="http://www.w3.org/1999/xlink" x="0px" y="0px"
	 width="95px" height="61px" viewBox="0 0 95 61" enable-background="new 0 0 95 61" xml:space="preserve">
<g>
	<g>
		<path fill="#FFFFFF" d="M94.5,57.5c0,1.7-1.3,3-3,3h-88c-1.6,0-3-1.3-3-3v-54c0-1.7,1.4-3,3-3h88c1.7,0,3,1.3,3,3V57.5z"/>
		<path fill="none" stroke="#BBBDBF" stroke-miterlimit="10" d="M94.5,57.5c0,1.7-1.3,3-3,3h-88c-1.6,0-3-1.3-3-3v-54
			c0-1.7,1.4-3,3-3h88c1.7,0,3,1.3,3,3V57.5z"/>
	</g>
	<g>
		<path fill="#F58220" d="M22.9,60.3H91c1.7,0,3-1.3,3-3V34.6C94,34.6,68.9,52.3,22.9,60.3z"/>
		<path fill="#E83731" d="M85.2,53"/>
		
			<radialGradient id="SVGID_1_" cx="44.15" cy="-3516.5264" r="6.7485" gradientTransform="matrix(1 0 0 -1 6.416 -3493.0977)" gradientUnits="userSpaceOnUse">
			<stop  offset="5.600000e-03" style="stop-color:#FFEFE2"/>
			<stop  offset="9.640000e-02" style="stop-color:#FFEBD9"/>
			<stop  offset="0.2444" style="stop-color:#FEDEC3"/>
			<stop  offset="0.4315" style="stop-color:#FDCBA0"/>
			<stop  offset="0.6502" style="stop-color:#FAB073"/>
			<stop  offset="0.8926" style="stop-color:#F79139"/>
			<stop  offset="1" style="stop-color:#F58220"/>
		</radialGradient>
		<path fill="url(#SVGID_1_)" d="M50.6,16.8c-3.8,0-6.8,2.9-6.8,6.6c0,3.9,2.9,6.8,6.8,6.8c3.8,0,6.8-2.9,6.8-6.7
			C57.4,19.7,54.4,16.8,50.6,16.8z"/>
		<path fill="#081A23" d="M11.8,17H8.1v12.8h3.7c1.9,0,3.3-0.5,4.6-1.5c1.5-1.2,2.3-3,2.3-4.9C18.7,19.6,15.8,17,11.8,17z
			 M14.7,26.6c-0.8,0.7-1.8,1-3.4,1h-0.7v-8.5h0.7c1.6,0,2.6,0.3,3.4,1c0.9,0.8,1.4,2,1.4,3.2C16.1,24.6,15.6,25.9,14.7,26.6z"/>
		<rect x="19.8" y="17" fill="#081A23" width="2.5" height="12.8"/>
		<path fill="#081A23" d="M28.4,21.9c-1.5-0.6-1.9-0.9-1.9-1.6c0-0.8,0.8-1.4,1.9-1.4c0.7,0,1.4,0.3,2,1l1.3-1.7
			c-1.1-0.9-2.4-1.4-3.8-1.4c-2.3,0-4,1.6-4,3.7c0,1.8,0.8,2.7,3.2,3.5c1,0.3,1.5,0.6,1.7,0.7c0.5,0.3,0.7,0.8,0.7,1.3
			c0,1-0.8,1.8-1.9,1.8c-1.2,0-2.1-0.6-2.7-1.7l-1.6,1.6c1.2,1.7,2.5,2.4,4.4,2.4c2.6,0,4.4-1.7,4.4-4.2
			C32.1,23.9,31.3,22.9,28.4,21.9z"/>
		<path fill="#081A23" d="M32.9,23.4c0,3.8,3,6.7,6.8,6.7c1.1,0,2-0.2,3.1-0.7v-2.9c-1,1-1.9,1.4-3,1.4c-2.5,0-4.3-1.8-4.3-4.4
			c0-2.5,1.8-4.4,4.2-4.4c1.2,0,2.1,0.4,3.1,1.4v-2.9c-1.1-0.6-2-0.8-3.1-0.8C35.9,16.7,32.9,19.7,32.9,23.4z"/>
		<polygon fill="#081A23" points="63,25.6 59.6,17 56.9,17 62.3,30.1 63.7,30.1 69.2,17 66.5,17 		"/>
		<polygon fill="#081A23" points="70.3,29.8 77.4,29.8 77.4,27.6 72.8,27.6 72.8,24.2 77.3,24.2 77.3,22 72.8,22 72.8,19.2 
			77.4,19.2 77.4,17 70.3,17 		"/>
		<path fill="#081A23" d="M87.3,20.8c0-2.4-1.7-3.8-4.5-3.8h-3.7v12.8h2.5v-5.2h0.3l3.5,5.2h3.1l-4-5.4C86.3,24,87.3,22.7,87.3,20.8
			z M82.3,22.9h-0.7V19h0.8c1.6,0,2.4,0.7,2.4,1.9C84.8,22.2,83.9,22.9,82.3,22.9z"/>
		<path fill="#231F20" d="M89.1,18c0-0.2-0.2-0.3-0.4-0.3h-0.4v1.1h0.3v-0.4l0.3,0.4h0.3l-0.4-0.5C89,18.2,89.1,18.1,89.1,18z
			 M88.6,18.1L88.6,18.1l-0.1-0.3h0.1c0.1,0,0.2,0,0.2,0.1C88.8,18.1,88.8,18.1,88.6,18.1z"/>
		<path fill="#231F20" d="M88.7,17.2c-0.5,0-1,0.4-1,1c0,0.5,0.4,1,1,1c0.5,0,1-0.4,1-1C89.7,17.6,89.3,17.2,88.7,17.2z M88.7,19
			c-0.4,0-0.8-0.4-0.8-0.8c0-0.5,0.3-0.8,0.8-0.8c0.4,0,0.8,0.4,0.8,0.8C89.5,18.6,89.1,19,88.7,19z"/>
		<path fill="#929497" d="M30.5,33.2l3.3,3.5v-3.3h0.5v4.5L31,34.3v3.3h-0.5C30.5,37.6,30.5,33.2,30.5,33.2z"/>
		<path fill="#929497" d="M30.5,33.2v4.5H31c0,0,0-3,0-3.2c0.1,0.2,3.3,3.5,3.3,3.5v-4.6h-0.6c0,0,0,3,0,3.3
			c-0.1-0.2-3.3-3.5-3.3-3.5S30.5,33.2,30.5,33.2z M30.6,33.3c0.1,0.2,3.3,3.5,3.3,3.5s0-3.3,0-3.4c0.1,0,0.3,0,0.4,0
			c0,0.1,0,4.1,0,4.3c-0.1-0.2-3.3-3.5-3.3-3.5s0,3.3,0,3.4c-0.1,0-0.3,0-0.4,0C30.6,37.5,30.6,33.5,30.6,33.3z"/>
		<path fill="#929497" d="M36.6,33.4h2.2v0.4h-1.7v1.3h1.7v0.4h-1.7v1.7h1.7v0.4h-2.2V33.4z"/>
		<path fill="#929497" d="M38.9,33.3h-2.3v4.4h2.3v-0.5c0,0-1.7,0-1.7,0c0-0.1,0-1.5,0-1.6c0.1,0,1.7,0,1.7,0V35c0,0-1.6,0-1.7,0
			c0-0.1,0-1.1,0-1.2c0.1,0,1.7,0,1.7,0L38.9,33.3L38.9,33.3L38.9,33.3z M38.8,33.4c0,0.1,0,0.3,0,0.4c-0.1,0-1.7,0-1.7,0v1.4
			c0,0,1.6,0,1.7,0c0,0.1,0,0.3,0,0.4c-0.1,0-1.7,0-1.7,0v1.8c0,0,1.7,0,1.7,0c0,0.1,0,0.3,0,0.4c-0.1,0-2,0-2.1,0
			c0-0.1,0-4.1,0-4.2C36.8,33.4,38.7,33.4,38.8,33.4z"/>
		<path fill="#929497" d="M42.2,37.6h-0.5v-3.8h-1v-0.4h2.6v0.4h-1C42.2,33.8,42.2,37.6,42.2,37.6z"/>
		<path fill="#929497" d="M43.3,33.3h-2.6v0.5c0,0,1,0,1,0c0,0.1,0,3.8,0,3.8h0.6c0,0,0-3.8,0-3.8c0.1,0,1,0,1,0L43.3,33.3
			L43.3,33.3z M43.2,33.4c0,0.1,0,0.3,0,0.4c-0.1,0-1,0-1,0s0,3.8,0,3.8c-0.1,0-0.3,0-0.4,0c0-0.1,0-3.8,0-3.8s-1,0-1,0
			c0-0.1,0-0.3,0-0.4C40.9,33.4,43.2,33.4,43.2,33.4z"/>
		<path fill="#929497" d="M46.5,36.6l1.4-3.4l1.4,3.4l1.1-3.2h0.5l-1.6,4.5l-1.4-3.5l-1.4,3.5l-1.6-4.5h0.5L46.5,36.6z"/>
		<path fill="#929497" d="M47.8,33.1c0,0-1.3,3.1-1.3,3.3c-0.1-0.2-1.1-3.1-1.1-3.1h-0.6l1.7,4.7c0,0,1.3-3.3,1.4-3.5
			c0.1,0.2,1.4,3.5,1.4,3.5l1.7-4.7h-0.6c0,0-1,2.9-1.1,3.1c-0.1-0.2-1.4-3.4-1.4-3.4L47.8,33.1z M46.5,36.6c0,0,1.3-3.1,1.3-3.3
			c0.1,0.2,1.4,3.4,1.4,3.4s1.1-3.2,1.2-3.3c0,0,0.3,0,0.4,0c0,0.1-1.5,4.1-1.6,4.3c-0.1-0.2-1.4-3.4-1.4-3.4s-1.3,3.2-1.4,3.4
			c-0.1-0.2-1.5-4.2-1.6-4.3c0.1,0,0.4,0,0.4,0c0,0.1,1.2,3.3,1.2,3.3L46.5,36.6z"/>
		<path fill="#929497" d="M57.1,35.5c0,1.2-1,2.2-2.2,2.2c-1.2,0-2.2-1-2.2-2.2c0-1.2,1-2.2,2.2-2.2C56.1,33.3,57.1,34.3,57.1,35.5z
			 M53.1,35.5c0,1,0.8,1.8,1.8,1.8c1,0,1.8-0.8,1.8-1.8c0-1-0.8-1.8-1.8-1.8C53.9,33.7,53.1,34.5,53.1,35.5z"/>
		<path fill="#929497" d="M52.6,35.5c0,1.2,1,2.3,2.3,2.3c1.3,0,2.3-1,2.3-2.3c0-1.3-1-2.3-2.3-2.3C53.6,33.2,52.6,34.3,52.6,35.5z
			 M52.6,35.5c0-1.2,1-2.2,2.2-2.2c1.2,0,2.2,1,2.2,2.2c0,1.2-1,2.2-2.2,2.2C53.6,37.7,52.6,36.7,52.6,35.5z"/>
		<path fill="#929497" d="M53,35.5c0,1,0.8,1.8,1.8,1.8c1,0,1.8-0.8,1.8-1.8c0-1-0.8-1.8-1.8-1.8C53.9,33.7,53,34.5,53,35.5z
			 M53.1,35.5c0-1,0.8-1.7,1.7-1.7c0.9,0,1.7,0.8,1.7,1.7c0,1-0.8,1.7-1.7,1.7C53.9,37.2,53.1,36.5,53.1,35.5z"/>
		<path fill="#929497" d="M59.6,37.6h-0.5v-4.3h0.6c0.8,0,1.6,0.2,1.6,1.2c0,0.7-0.4,1.1-1.1,1.2l1.4,1.9H61l-1.3-1.9h-0.1
			L59.6,37.6L59.6,37.6z M59.6,35.3h0.2c0.5,0,1.1-0.1,1.1-0.8c0-0.7-0.5-0.8-1.1-0.8h-0.1L59.6,35.3L59.6,35.3z"/>
		<path fill="#929497" d="M59.1,33.3L59.1,33.3l0,4.4h0.6c0,0,0-1.8,0-1.9c0,0,0.1,0,0.1,0l0,0c0,0,1.3,1.9,1.3,1.9l0.6,0h0.1
			c0,0-1.3-1.8-1.4-1.9c0.6-0.1,1-0.6,1-1.2c0-0.8-0.5-1.2-1.6-1.2L59.1,33.3L59.1,33.3z M59.8,33.4c1,0,1.5,0.4,1.5,1.1
			c0,0.6-0.4,1.1-1,1.1l-0.1,0c0,0,1.3,1.8,1.4,1.9c-0.1,0-0.5,0-0.5,0h0c0,0-1.3-1.9-1.3-1.9l-0.2,0h0c0,0,0,1.8,0,1.9
			c-0.1,0-0.3,0-0.4,0c0-0.1,0-4.1,0-4.2C59.3,33.4,59.8,33.4,59.8,33.4z"/>
		<path fill="#929497" d="M66,33.4h0.6l-2,2l2.1,2.3H66l-1.8-2l-0.1,0.1v1.9h-0.5v-4.3h0.5v1.8L66,33.4z"/>
		<path fill="#929497" d="M66.6,33.3h-0.7c0,0-1.6,1.6-1.8,1.8c0-0.2,0-1.8,0-1.8h-0.6v4.4h0.6c0,0,0-1.9,0-1.9c0,0,0,0,0.1-0.1
			c0.1,0.1,1.7,1.9,1.7,1.9l0.7,0h0.1c0,0-2.1-2.3-2.1-2.3c0.1-0.1,2.1-2,2.1-2L66.6,33.3L66.6,33.3z M66.5,33.4c-0.1,0.1-2,2-2,2
			s1.9,2.1,2,2.2c-0.1,0-0.6,0-0.6,0l0,0c0,0-1.7-2-1.7-2l0,0l-0.2,0.2c0,0,0,1.7,0,1.8c-0.1,0-0.3,0-0.4,0c0-0.1,0-4.1,0-4.2
			c0.1,0,0.3,0,0.4,0c0,0.1,0,1.9,0,1.9s1.9-1.9,1.9-1.9C66,33.4,66.3,33.4,66.5,33.4z"/>
	</g>
</g>
</svg>
