<?xml version="1.0" encoding="utf-8"?>
<!-- Generator: Adobe Illustrator 17.0.0, SVG Export Plug-In . SVG Version: 6.00 Build 0)  -->
<!DOCTYPE svg PUBLIC "-//W3C//DTD SVG 1.1//EN" "http://www.w3.org/Graphics/SVG/1.1/DTD/svg11.dtd">
<svg version="1.1" id="Layer_1" xmlns="http://www.w3.org/2000/svg" xmlns:xlink="http://www.w3.org/1999/xlink" x="0px" y="0px"
	 width="95px" height="61px" viewBox="0 0 95 61" enable-background="new 0 0 95 61" xml:space="preserve">
<g>
	<g>
		<path fill="#FFFFFF" d="M94.5,57.5c0,1.7-1.3,3-3,3h-88c-1.6,0-3-1.3-3-3v-54c0-1.7,1.4-3,3-3h88c1.7,0,3,1.3,3,3V57.5z"/>
		<path fill="none" stroke="#BBBDBF" stroke-miterlimit="10" d="M94.5,57.5c0,1.7-1.3,3-3,3h-88c-1.6,0-3-1.3-3-3v-54
			c0-1.7,1.4-3,3-3h88c1.7,0,3,1.3,3,3V57.5z"/>
	</g>
	<g>
		<path fill-rule="evenodd" clip-rule="evenodd" fill="#2A97D8" d="M67.1,25c-1.8,0-3.2,0.5-4.3,0.7l-0.3,2.7
			c0.5-0.3,2.2-0.7,3.7-0.8c1.4,0,2.2,0.3,2,1.5c-4.2,0-7,0.9-7.6,3.6c-0.8,4.7,4.3,4.5,6.3,2.5l-0.2,1.1h3.7l1.6-7.4
			C72.6,25.7,69.7,25,67.1,25z M67.3,32.6c-0.2,1-1,1.4-2,1.5c-0.8,0-1.6-0.7-1-1.6c0.4-0.7,1.6-0.9,2.3-0.9c0.3,0,0.6,0,0.9,0
			C67.5,31.9,67.4,32.2,67.3,32.6z"/>
		<polygon fill-rule="evenodd" clip-rule="evenodd" fill="#2A97D8" points="75.1,22.1 72,36.3 75.8,36.3 78.9,22.1 75.1,22.1 
			75.1,22.1 		"/>
		<path fill-rule="evenodd" clip-rule="evenodd" fill="#2A97D8" d="M57.7,22.1h-7l-3.1,14.2h4l1-4.7h2.9c2.8,0,5.2-1.7,5.8-4.7
			C62.1,23.6,59.7,22.1,57.7,22.1z M57.5,26.9c-0.3,1.1-1.3,1.9-2.4,1.9h-1.9l0.8-3.9h2C57.2,25,57.8,25.9,57.5,26.9z"/>
		<path fill-rule="evenodd" clip-rule="evenodd" fill="#10549B" d="M30.7,25c-1.8,0-3.2,0.5-4.2,0.7l-0.3,2.7
			c0.5-0.3,2.2-0.7,3.6-0.8c1.4,0,2.2,0.3,2,1.5c-4.1,0-6.9,0.9-7.5,3.6c-0.8,4.7,4.2,4.5,6.2,2.5l-0.2,1.1h3.7l1.6-7.4
			C36.1,25.7,33.3,25,30.7,25z M31,32.6c-0.2,1-1,1.4-2,1.5c-0.8,0-1.5-0.7-1-1.6c0.4-0.7,1.6-0.9,2.2-0.9c0.3,0,0.6,0,0.9,0
			C31.1,31.9,31,32.2,31,32.6z"/>
		<polygon fill-rule="evenodd" clip-rule="evenodd" fill="#10549B" points="37.1,25.2 40.8,25.2 41.4,31.8 45.1,25.2 49,25.2 
			40.1,41 35.9,41 38.6,36.4 37.1,25.2 37.1,25.2 		"/>
		<path fill-rule="evenodd" clip-rule="evenodd" fill="#10549B" d="M21.4,22.1h-7l-3.1,14.2h4.1l1-4.7h2.9c2.8,0,5.1-1.7,5.8-4.7
			C25.8,23.6,23.4,22.1,21.4,22.1z M21.3,26.9C21,28,20,28.9,18.9,28.9H17l0.9-3.9h2C20.9,25,21.6,25.9,21.3,26.9z"/>
		<path fill="#2A97D8" d="M80.7,23.9v-1.7h-0.6V22h1.5v0.2H81v1.7H80.7z"/>
		<path fill="#2A97D8" d="M81.9,23.9V22h0.4l0.5,1.3c0,0.1,0.1,0.2,0.1,0.3c0-0.1,0.1-0.2,0.1-0.3l0.5-1.3h0.3v1.9h-0.2v-1.6
			l-0.6,1.6h-0.2l-0.5-1.6v1.6H81.9z"/>
	</g>
</g>
</svg>
