<?xml version="1.0" encoding="utf-8"?>
<!-- Generator: Adobe Illustrator 17.0.0, SVG Export Plug-In . SVG Version: 6.00 Build 0)  -->
<!DOCTYPE svg PUBLIC "-//W3C//DTD SVG 1.1//EN" "http://www.w3.org/Graphics/SVG/1.1/DTD/svg11.dtd">
<svg version="1.1" id="Layer_1" xmlns="http://www.w3.org/2000/svg" xmlns:xlink="http://www.w3.org/1999/xlink" x="0px" y="0px"
	 width="95px" height="61px" viewBox="0 0 95 61" enable-background="new 0 0 95 61" xml:space="preserve">
<g>
	<g>
		<path fill="#FFFFFF" d="M94.5,57.5c0,1.7-1.4,3-3,3h-88c-1.6,0-3-1.3-3-3v-54c0-1.7,1.4-3,3-3h88c1.6,0,3,1.3,3,3V57.5z"/>
		<path fill="none" stroke="#BBBDBF" stroke-miterlimit="10" d="M94.5,57.5c0,1.7-1.4,3-3,3h-88c-1.6,0-3-1.3-3-3v-54
			c0-1.7,1.4-3,3-3h88c1.6,0,3,1.3,3,3V57.5z"/>
	</g>
	<g>
		
			<radialGradient id="SVGID_1_" cx="-177.5111" cy="-3907.894" r="81.7197" gradientTransform="matrix(0.651 0 0 -0.6454 144.6978 -2510.1665)" gradientUnits="userSpaceOnUse">
			<stop  offset="0.1487" style="stop-color:#23ADE3"/>
			<stop  offset="0.2791" style="stop-color:#0DA6E0"/>
			<stop  offset="1" style="stop-color:#2E77BC"/>
		</radialGradient>
		<path fill="url(#SVGID_1_)" d="M76.1,2h-57v57h57V40.2"/>
		<g>
			<path fill="#FFFFFF" d="M24.1,25.2L23,22.5l-1.1,2.7 M48.3,24.1c-0.2,0.1-0.5,0.1-0.8,0.1h-1.9v-1.5h2c0.3,0,0.6,0,0.8,0.1
				c0.2,0.1,0.3,0.3,0.3,0.6C48.6,23.8,48.5,24,48.3,24.1z M62.1,25.2L61,22.5l-1.1,2.7H62.1z M36.3,28.1h-1.6l0-5.2l-2.3,5.2h-1.4
				l-2.3-5.3v5.3h-3.3l-0.6-1.5h-3.3l-0.6,1.5H19l2.9-6.7h2.4l2.7,6.3v-6.3h2.6l2.1,4.5l1.9-4.5h2.7L36.3,28.1L36.3,28.1z
				 M42.8,28.1h-5.4v-6.7h5.4v1.4h-3.7V24h3.7v1.4h-3.7v1.3h3.7V28.1z M50.4,23.2c0,1.1-0.7,1.6-1.1,1.8c0.4,0.1,0.7,0.4,0.8,0.6
				c0.2,0.3,0.3,0.6,0.3,1.2v1.3h-1.6l0-0.8c0-0.4,0-1-0.3-1.3c-0.2-0.2-0.6-0.3-1.2-0.3h-1.7v2.4h-1.6v-6.7h3.7
				c0.8,0,1.4,0,1.9,0.3C50.1,22,50.4,22.4,50.4,23.2z M52.9,28.1h-1.6v-6.7h1.6V28.1z M71.9,28.1h-2.3l-3-5v5h-3.3l-0.6-1.5h-3.3
				l-0.6,1.5h-1.9c-0.8,0-1.8-0.2-2.3-0.7c-0.6-0.6-0.9-1.3-0.9-2.6c0-1,0.2-1.9,0.9-2.6c0.5-0.5,1.3-0.8,2.4-0.8h1.6v1.4H57
				c-0.6,0-0.9,0.1-1.2,0.4c-0.3,0.3-0.5,0.8-0.5,1.5c0,0.7,0.1,1.2,0.4,1.6c0.2,0.3,0.7,0.3,1.1,0.3h0.7l2.3-5.3h2.4l2.7,6.3v-6.3
				h2.4l2.8,4.7v-4.7h1.6V28.1L71.9,28.1z M19,29.4h2.7l0.6-1.5h1.4l0.6,1.5h5.4v-1.1l0.5,1.1H33l0.5-1.2v1.2h13.4l0-2.4h0.3
				c0.2,0,0.2,0,0.2,0.3v2.1h6.9v-0.6c0.6,0.3,1.4,0.6,2.6,0.6h2.9l0.6-1.5h1.4l0.6,1.5H68V28l0.8,1.4h4.5v-9.3h-4.5v1.1l-0.6-1.1
				h-4.6v1.1l-0.6-1.1h-6.2c-1,0-1.9,0.1-2.7,0.5v-0.5H50v0.5c-0.5-0.4-1.1-0.5-1.8-0.5H32.6l-1,2.4l-1.1-2.4h-4.9v1.1l-0.5-1.1
				h-4.2L19,24.5L19,29.4L19,29.4z"/>
			<path fill="#FFFFFF" d="M76,34.3H73c-0.3,0-0.5,0-0.6,0.1c-0.2,0.1-0.2,0.3-0.2,0.5c0,0.3,0.1,0.4,0.4,0.5
				c0.2,0.1,0.4,0.1,0.6,0.1l0.9,0c0.9,0,1.5,0.2,1.8,0.5c0.1,0.1,0.1,0.1,0.1,0.2 M76,38.8c-0.4,0.6-1.1,0.9-2.2,0.9h-3.1v-1.4h3.1
				c0.3,0,0.5,0,0.6-0.2c0.1-0.1,0.2-0.3,0.2-0.4c0-0.2-0.1-0.4-0.2-0.4C74.3,37,74.1,37,73.9,37c-1.5-0.1-3.4,0-3.4-2.1
				c0-1,0.6-2,2.3-2H76v-1.3h-3c-0.9,0-1.5,0.2-2,0.5v-0.5h-4.4c-0.7,0-1.5,0.2-1.9,0.5v-0.5h-7.8v0.5c-0.6-0.4-1.7-0.5-2.2-0.5
				h-5.2v0.5c-0.5-0.5-1.6-0.5-2.3-0.5h-5.8L40.2,33l-1.2-1.4h-8.6v9.4h8.5l1.4-1.5l1.3,1.5l5.2,0v-2.2h0.5c0.7,0,1.5,0,2.2-0.3v2.5
				h4.3v-2.4h0.2c0.3,0,0.3,0,0.3,0.3v2.2h13.1c0.8,0,1.7-0.2,2.2-0.6v0.6h4.2c0.9,0,1.7-0.1,2.3-0.4V38.8L76,38.8z M69.6,36.1
				c0.3,0.3,0.5,0.7,0.5,1.4c0,1.4-0.9,2.1-2.5,2.1h-3.1v-1.4h3.1c0.3,0,0.5,0,0.7-0.2c0.1-0.1,0.2-0.3,0.2-0.4
				c0-0.2-0.1-0.4-0.2-0.4C68.1,37,67.9,37,67.6,37c-1.5-0.1-3.4,0-3.4-2.1c0-1,0.6-2,2.3-2h3.2v1.4h-2.9c-0.3,0-0.5,0-0.6,0.1
				c-0.2,0.1-0.2,0.3-0.2,0.5c0,0.3,0.1,0.4,0.4,0.5c0.2,0.1,0.4,0.1,0.6,0.1l0.9,0C68.6,35.6,69.2,35.7,69.6,36.1z M55.1,35.7
				c-0.2,0.1-0.5,0.1-0.8,0.1h-1.9v-1.5h2c0.3,0,0.6,0,0.8,0.1c0.2,0.1,0.3,0.3,0.3,0.6C55.5,35.3,55.3,35.5,55.1,35.7z M56.1,36.5
				c0.4,0.1,0.6,0.4,0.8,0.6c0.2,0.3,0.3,0.6,0.3,1.2v1.3h-1.6v-0.8c0-0.4,0-1-0.3-1.3c-0.2-0.2-0.6-0.3-1.2-0.3h-1.7v2.4h-1.6v-6.7
				h3.7c0.8,0,1.4,0,1.9,0.3c0.5,0.3,0.8,0.7,0.8,1.5C57.2,35.8,56.5,36.3,56.1,36.5z M58.1,32.9h5.3v1.4h-3.8v1.2h3.7v1.4h-3.7v1.3
				l3.8,0v1.4h-5.3V32.9z M47.3,36h-2.1v-1.7h2.1c0.6,0,1,0.2,1,0.8C48.3,35.7,47.9,36,47.3,36z M43.6,39l-2.5-2.7l2.5-2.6V39z
				 M37.3,38.2h-3.9v-1.3h3.5v-1.4h-3.5v-1.2h4l1.8,2L37.3,38.2z M50,35.1c0,1.9-1.4,2.2-2.8,2.2h-2v2.2h-3.1l-2-2.2l-2.1,2.2h-6.3
				v-6.7h6.4l2,2.2l2-2.2h5.1C48.6,32.9,50,33.3,50,35.1z"/>
		</g>
	</g>
</g>
</svg>
