<svg width="95" height="62" xmlns="http://www.w3.org/2000/svg"><title>card-visa</title><desc>Created with Sketch.</desc><g transform="translate(-647 -588) translate(647 588.776)" fill="none"><g id="Shape"><path d="M94.5 57.5c0 1.7-1.3 3-3 3h-88c-1.6 0-3-1.3-3-3v-54c0-1.7 1.4-3 3-3h88c1.7 0 3 1.3 3 3v54z" fill="#fff"/><path d="M94.5 57.5c0 1.7-1.3 3-3 3h-88c-1.6 0-3-1.3-3-3v-54c0-1.7 1.4-3 3-3h88c1.7 0 3 1.3 3 3v54z" stroke="#7D7D7D"/></g><g transform="translate(11 19)"><polygon fill="#00589F" points="25.2 21.9 28.7 1.1 34.4 1.1 30.8 21.9"/><path d="M51.4 1.6c-1.1-.4-2.9-.9-5.1-.9-5.6 0-9.5 2.8-9.6 6.9 0 3 2.8 4.7 5 5.6 2.2 1 2.9 1.7 2.9 2.6 0 1.4-1.8 2-3.4 2-2.3 0-3.5-.3-5.3-1.1l-.7-.3-.8 4.7c1.3.6 3.8 1.1 6.3 1.1 6 0 9.8-2.8 9.9-7.1 0-2.4-1.5-4.2-4.8-5.6-2-1-3.2-1.6-3.2-2.6 0-.9 1-1.8 3.2-1.8 1.9 0 3.2.4 4.2.8l.5.2.9-4.5" fill="#00589F"/><path d="M65.9 1.2h-4.4c-1.4 0-2.4.4-3 1.7l-8.4 19.1h6s1-2.6 1.2-3.1h7.3c.2.7.7 3.1.7 3.1h5.3l-4.7-20.8zm-7 13.4c.5-1.2 2.3-5.8 2.3-5.8 0 .1.5-1.2.8-2l.4 1.8s1.1 5 1.3 6h-4.8z" fill="#00589F"/><path d="M20.4 1.1l-5.5 14.2-.6-2.9c-1-3.3-4.3-6.9-7.8-8.7l5.1 18.2h6l8.9-20.8h-6.1" fill="#00589F"/><path d="M9.7 1.1h-9.1l-.1.4c7.1 1.7 11.8 5.9 13.8 10.9l-2-9.6c-.4-1.2-1.4-1.6-2.6-1.7" fill="#F9A51A"/></g></g></svg>