<?xml version="1.0" encoding="utf-8"?>
<!-- Generator: Adobe Illustrator 17.0.0, SVG Export Plug-In . SVG Version: 6.00 Build 0)  -->
<!DOCTYPE svg PUBLIC "-//W3C//DTD SVG 1.1//EN" "http://www.w3.org/Graphics/SVG/1.1/DTD/svg11.dtd">
<svg version="1.1" id="Layer_1" xmlns="http://www.w3.org/2000/svg" xmlns:xlink="http://www.w3.org/1999/xlink" x="0px" y="0px"
	 width="95px" height="61px" viewBox="0 0 95 61" enable-background="new 0 0 95 61" xml:space="preserve">
<g>
	<g>
		<path fill="#FFFFFF" d="M94.5,57.5c0,1.7-1.3,3-3,3h-88c-1.6,0-3-1.3-3-3v-54c0-1.7,1.4-3,3-3h88c1.7,0,3,1.3,3,3V57.5z"/>
		<path fill="none" stroke="#BBBDBF" stroke-miterlimit="10" d="M94.5,57.5c0,1.7-1.3,3-3,3h-88c-1.6,0-3-1.3-3-3v-54
			c0-1.7,1.4-3,3-3h88c1.7,0,3,1.3,3,3V57.5z"/>
	</g>
	<g>
		<g>
			<g>
				<circle fill="#ED1C2E" cx="34.4" cy="30.5" r="19.4"/>
				<g>
					<path fill="#FCB131" d="M60.6,11.1c-5,0-9.6,1.9-13.1,5c-0.7,0.6-1.4,1.3-2,2.1h3.9c0.5,0.7,1,1.3,1.5,2.1H44
						c-0.4,0.7-0.8,1.3-1.1,2.1h9.1c0.3,0.7,0.6,1.4,0.8,2.1H42.1c-0.2,0.7-0.4,1.4-0.6,2.1h11.9c0.3,1.3,0.4,2.7,0.4,4.1
						c0,2.2-0.4,4.2-1,6.2H42.1c0.2,0.7,0.5,1.4,0.8,2.1h9.1c-0.3,0.7-0.7,1.4-1.1,2.1h-6.9c0.5,0.7,0.9,1.4,1.5,2.1h3.9
						c-0.6,0.7-1.3,1.4-2,2.1c3.4,3.1,8,5,13.1,5c10.7,0,19.4-8.7,19.4-19.4C80,19.8,71.3,11.1,60.6,11.1z"/>
				</g>
			</g>
			<path fill="#FCB131" d="M77.4,41.3c0-0.3,0.3-0.6,0.6-0.6c0.3,0,0.6,0.3,0.6,0.6c0,0.3-0.3,0.6-0.6,0.6
				C77.7,42,77.4,41.7,77.4,41.3z M78,41.8c0.3,0,0.5-0.2,0.5-0.5s-0.2-0.5-0.5-0.5s-0.5,0.2-0.5,0.5S77.8,41.8,78,41.8z M78,41.6
				h-0.1v-0.6h0.2c0,0,0.1,0,0.1,0c0,0,0.1,0.1,0.1,0.1c0,0.1,0,0.1-0.1,0.1l0.1,0.2h-0.1L78,41.4h-0.1L78,41.6L78,41.6z M78,41.3
				L78,41.3c0.1,0,0.1,0,0.2,0c0,0,0,0,0-0.1c0,0,0,0,0-0.1c0,0-0.1,0-0.1,0H78V41.3z"/>
		</g>
		<g>
			<g>
				<path fill="#003473" d="M29.9,32.6c-0.2,0-0.3,0-0.5,0c-1.2,0-1.8,0.4-1.8,1.2c0,0.5,0.3,0.8,0.8,0.8
					C29.2,34.6,29.9,33.8,29.9,32.6z M31.4,36.2c-0.3,0-1.8,0-1.8,0l0-0.8c-0.5,0.7-1.2,1-2.2,1c-1.1,0-1.9-0.9-1.9-2.2
					c0-2,1.4-3.1,3.7-3.1c0.2,0,0.5,0,0.9,0.1c0.1-0.3,0.1-0.4,0.1-0.5c0-0.5-0.4-0.7-1.4-0.7c-1,0-1.9,0.2-2.2,0.4
					c0-0.1,0.3-1.8,0.3-1.8c1.1-0.3,1.7-0.4,2.5-0.4c1.8,0,2.8,0.8,2.8,2.4c0,0.4-0.1,0.9-0.2,1.6C31.9,33.1,31.5,35.6,31.4,36.2z"
					/>
				<polygon fill="#003473" points="24.7,36.2 22.6,36.2 23.8,28.6 21.1,36.2 19.7,36.2 19.5,28.7 18.2,36.2 16.2,36.2 17.9,26.3 
					20.9,26.3 21.1,31.9 23,26.3 26.3,26.3 				"/>
				<path fill="#003473" d="M63.2,32.6c-0.2,0-0.3,0-0.5,0c-1.2,0-1.8,0.4-1.8,1.2c0,0.5,0.3,0.8,0.8,0.8
					C62.5,34.6,63.1,33.8,63.2,32.6z M64.7,36.2c-0.3,0-1.8,0-1.8,0l0-0.8c-0.5,0.7-1.2,1-2.2,1c-1.1,0-1.9-0.9-1.9-2.2
					c0-2,1.4-3.1,3.7-3.1c0.2,0,0.5,0,0.9,0.1c0.1-0.3,0.1-0.4,0.1-0.5c0-0.5-0.4-0.7-1.4-0.7c-1,0-1.9,0.2-2.2,0.4
					c0-0.1,0.3-1.8,0.3-1.8c1.1-0.3,1.7-0.4,2.5-0.4c1.8,0,2.8,0.8,2.8,2.4c0,0.4-0.1,0.9-0.2,1.6C65.1,33.1,64.7,35.6,64.7,36.2z"
					/>
				<path fill="#003473" d="M40.8,36.1c-0.6,0.2-1,0.3-1.5,0.3c-1.1,0-1.7-0.6-1.7-1.8c0-0.4,0.2-1.3,0.3-2.1
					c0.1-0.7,0.9-5.5,0.9-5.5h2.1l-0.2,1.2H42l-0.3,1.9h-1.3c-0.2,1.5-0.6,3.4-0.6,3.7c0,0.4,0.2,0.6,0.7,0.6c0.2,0,0.4,0,0.6-0.1
					L40.8,36.1z"/>
				<path fill="#003473" d="M47.3,36c-0.7,0.2-1.4,0.3-2.2,0.3c-2.4,0-3.6-1.2-3.6-3.6c0-2.7,1.6-4.8,3.7-4.8c1.7,0,2.8,1.1,2.8,2.9
					c0,0.6-0.1,1.2-0.3,2h-4.2c-0.1,1.2,0.6,1.6,1.8,1.6c0.7,0,1.4-0.2,2.2-0.5L47.3,36z M46.1,31.3c0-0.2,0.2-1.4-1-1.4
					c-0.7,0-1.1,0.5-1.3,1.4H46.1z"/>
				<path fill="#003473" d="M32.7,30.7c0,1,0.5,1.7,1.6,2.2c0.9,0.4,1,0.5,1,0.9c0,0.5-0.4,0.7-1.2,0.7c-0.6,0-1.2-0.1-1.9-0.3
					c0,0-0.3,1.8-0.3,1.9c0.5,0.1,0.9,0.2,2.2,0.2c2.2,0,3.3-0.8,3.3-2.7c0-1.1-0.4-1.8-1.5-2.2c-0.9-0.4-1-0.5-1-0.9
					c0-0.4,0.4-0.7,1-0.7c0.4,0,1,0,1.5,0.1l0.3-1.9c-0.5-0.1-1.4-0.2-1.9-0.2C33.5,28,32.7,29.2,32.7,30.7z"/>
				<path fill="#003473" d="M57.5,28.2c0.6,0,1.1,0.2,1.9,0.5l0.3-2.1c-0.3-0.1-1.4-0.8-2.3-0.8c-1.4,0-2.6,0.7-3.4,1.9
					c-1.2-0.4-1.7,0.4-2.3,1.2L51.1,29c0-0.3,0.1-0.5,0.1-0.8h-1.9c-0.3,2.5-0.7,5-1.1,7.5L48,36.2h2.1c0.4-2.3,0.5-3.8,0.7-4.8
					l0.8-0.4c0.1-0.4,0.5-0.6,1.2-0.6c-0.1,0.5-0.2,1.1-0.2,1.6c0,2.6,1.4,4.3,3.7,4.3c0.6,0,1.1-0.1,1.9-0.3l0.4-2.2
					c-0.7,0.3-1.3,0.5-1.8,0.5c-1.2,0-2-0.9-2-2.4C54.8,29.7,55.9,28.2,57.5,28.2z"/>
				<path fill="#003473" d="M75.4,26.3l-0.5,2.8c-0.6-0.8-1.2-1.3-2-1.3c-1.1,0-2,0.8-2.7,2c-0.9-0.2-1.8-0.5-1.8-0.5v0
					c0.1-0.7,0.1-1.1,0.1-1.2h-1.9c-0.3,2.5-0.7,5-1.1,7.5l-0.1,0.5h2.1c0.3-1.9,0.5-3.4,0.7-4.6c0.7-0.7,1.1-1.2,1.8-1.2
					c-0.3,0.8-0.5,1.7-0.5,2.6c0,2,1,3.3,2.5,3.3c0.8,0,1.4-0.3,1.9-0.9l-0.1,0.7h2l1.6-9.9L75.4,26.3L75.4,26.3z M72.8,34.3
					c-0.7,0-1.1-0.5-1.1-1.6c0-1.6,0.7-2.7,1.6-2.7c0.7,0,1.1,0.6,1.1,1.6C74.4,33.2,73.7,34.3,72.8,34.3z"/>
			</g>
			<g>
				<polygon fill="#FFFFFF" points="25.3,35.6 23.2,35.6 24.4,28 21.7,35.6 20.3,35.6 20.1,28.1 18.8,35.6 16.8,35.6 18.5,25.8 
					21.5,25.8 21.6,31.9 23.7,25.8 26.9,25.8 				"/>
				<path fill="#FFFFFF" d="M30.5,32c-0.2,0-0.3,0-0.5,0c-1.2,0-1.8,0.4-1.8,1.2c0,0.5,0.3,0.8,0.8,0.8C29.9,34,30.5,33.2,30.5,32z
					 M32,35.6c-0.3,0-1.7,0-1.7,0l0-0.8c-0.5,0.7-1.2,1-2.2,1c-1.1,0-1.9-0.9-1.9-2.2c0-2,1.4-3.1,3.7-3.1c0.2,0,0.5,0,0.9,0.1
					c0.1-0.3,0.1-0.4,0.1-0.5c0-0.5-0.4-0.7-1.4-0.7c-1,0-1.9,0.2-2.2,0.4c0-0.1,0.3-1.8,0.3-1.8c1.1-0.3,1.7-0.4,2.5-0.4
					c1.8,0,2.8,0.8,2.8,2.4c0,0.4-0.1,0.9-0.2,1.6C32.5,32.5,32.1,35,32,35.6z"/>
				<path fill="#FFFFFF" d="M60.4,26L60,28.2c-0.8-0.4-1.3-0.5-1.9-0.5c-1.6,0-2.7,1.5-2.7,3.7c0,1.5,0.7,2.4,2,2.4
					c0.5,0,1.1-0.2,1.8-0.5l-0.4,2.2c-0.8,0.2-1.3,0.3-1.9,0.3c-2.3,0-3.7-1.6-3.7-4.3c0-3.5,2-6,4.8-6C59,25.5,60,25.9,60.4,26z"/>
				<path fill="#FFFFFF" d="M63.8,32c-0.2,0-0.3,0-0.5,0c-1.2,0-1.8,0.4-1.8,1.2c0,0.5,0.3,0.8,0.8,0.8C63.1,34,63.7,33.2,63.8,32z
					 M65.3,35.6c-0.3,0-1.8,0-1.8,0l0-0.8c-0.5,0.7-1.2,1-2.2,1c-1.1,0-1.9-0.9-1.9-2.2c0-2,1.4-3.1,3.7-3.1c0.2,0,0.5,0,0.9,0.1
					c0.1-0.3,0.1-0.4,0.1-0.5c0-0.5-0.4-0.7-1.4-0.7c-1,0-1.9,0.2-2.2,0.4c0-0.1,0.3-1.8,0.3-1.8c1.1-0.3,1.7-0.4,2.5-0.4
					c1.8,0,2.8,0.8,2.8,2.4c0,0.4-0.1,0.9-0.2,1.6C65.8,32.5,65.4,35,65.3,35.6z"/>
				<path fill="#FFFFFF" d="M41.4,35.5c-0.6,0.2-1,0.3-1.5,0.3c-1.1,0-1.7-0.6-1.7-1.8c0-0.4,0.2-1.3,0.3-2.1
					c0.1-0.8,0.9-5.5,0.9-5.5h2.1l-0.2,1.2h1.1l-0.3,1.9H41c-0.2,1.5-0.6,3.4-0.6,3.7c0,0.4,0.2,0.6,0.7,0.6c0.2,0,0.4,0,0.6-0.1
					L41.4,35.5z"/>
				<path fill="#FFFFFF" d="M47.9,35.4c-0.7,0.2-1.4,0.3-2.2,0.3c-2.4,0-3.6-1.2-3.6-3.6c0-2.7,1.6-4.8,3.7-4.8
					c1.7,0,2.8,1.1,2.8,2.9c0,0.6-0.1,1.2-0.3,2h-4.2c-0.1,1.2,0.6,1.6,1.8,1.6c0.8,0,1.4-0.2,2.2-0.5L47.9,35.4z M46.7,30.7
					c0-0.2,0.2-1.4-1-1.4c-0.7,0-1.1,0.5-1.3,1.4H46.7z"/>
				<path fill="#FFFFFF" d="M33.3,30.1c0,1,0.5,1.7,1.6,2.2c0.9,0.4,1,0.5,1,0.9c0,0.5-0.4,0.7-1.2,0.7c-0.6,0-1.2-0.1-1.9-0.3
					c0,0-0.3,1.8-0.3,1.9c0.5,0.1,0.9,0.2,2.2,0.2c2.2,0,3.3-0.8,3.3-2.7c0-1.1-0.4-1.8-1.5-2.2c-0.9-0.4-1-0.5-1-0.9
					c0-0.4,0.4-0.7,1-0.7c0.4,0,1,0,1.5,0.1l0.3-1.9c-0.5-0.1-1.4-0.2-1.9-0.2C34.1,27.4,33.3,28.7,33.3,30.1z"/>
				<path fill="#FFFFFF" d="M76.5,35.6h-2l0.1-0.7c-0.6,0.6-1.2,0.9-1.9,0.9c-1.5,0-2.5-1.3-2.5-3.3c0-2.7,1.6-4.9,3.4-4.9
					c0.8,0,1.4,0.3,2,1.1l0.5-2.9h2.1L76.5,35.6z M73.4,33.8c1,0,1.7-1.1,1.7-2.7c0-1-0.4-1.6-1.1-1.6c-1,0-1.6,1.1-1.6,2.7
					C72.3,33.2,72.6,33.8,73.4,33.8z"/>
				<path fill="#FFFFFF" d="M67.2,27.6c-0.3,2.5-0.7,5-1.1,7.5L66,35.6h2.1c0.8-4.9,0.9-5.9,2.1-5.7c0.2-1,0.5-1.9,0.8-2.3
					c-0.9-0.2-1.4,0.3-2,1.3c0.1-0.4,0.1-0.8,0.1-1.2C69.1,27.6,67.2,27.6,67.2,27.6z"/>
				<path fill="#FFFFFF" d="M49.8,27.6c-0.3,2.5-0.7,5-1.1,7.5l-0.1,0.5h2.1c0.8-4.9,0.9-5.9,2.1-5.7c0.2-1,0.5-1.9,0.8-2.3
					c-0.9-0.2-1.4,0.3-2,1.3c0.1-0.4,0.1-0.8,0.1-1.2C51.8,27.6,49.8,27.6,49.8,27.6z"/>
				<g>
					<path fill="#FFFFFF" d="M77.4,35c0-0.3,0.3-0.6,0.6-0.6c0.3,0,0.6,0.3,0.6,0.6c0,0.3-0.3,0.6-0.6,0.6
						C77.7,35.6,77.4,35.3,77.4,35z M78,35.5c0.3,0,0.5-0.2,0.5-0.5c0-0.3-0.2-0.5-0.5-0.5s-0.5,0.2-0.5,0.5
						C77.6,35.3,77.8,35.5,78,35.5z M77.9,35.3h-0.1v-0.6h0.2c0,0,0.1,0,0.1,0c0,0,0.1,0.1,0.1,0.1c0,0.1,0,0.1-0.1,0.1l0.1,0.2
						h-0.1L78,35h-0.1L77.9,35.3L77.9,35.3z M77.9,34.9L77.9,34.9c0.1,0,0.1,0,0.2,0c0,0,0,0,0-0.1c0,0,0,0,0-0.1c0,0-0.1,0-0.1,0
						h-0.1C77.9,34.8,77.9,34.9,77.9,34.9z"/>
				</g>
			</g>
		</g>
	</g>
</g>
</svg>
