<svg width="95" height="61" xmlns="http://www.w3.org/2000/svg"><title>card-amex</title><desc>Created with Sketch.</desc><defs><radialGradient cx="17.611%" cy="17.523%" fx="17.611%" fy="17.523%" r="143.368%" id="a"><stop stop-color="#23ADE3" offset="14.87%"/><stop stop-color="#0DA6E0" offset="27.91%"/><stop stop-color="#2E77BC" offset="100%"/></radialGradient></defs><g transform="translate(-647 -664) translate(647 664)" fill="none"><g id="Shape"><path d="M94.5 57.5c0 1.7-1.4 3-3 3h-88c-1.6 0-3-1.3-3-3v-54c0-1.7 1.4-3 3-3h88c1.6 0 3 1.3 3 3v54z" fill="#fff"/><path d="M91.5 60.5h-88c-1.6 0-3-1.3-3-3v-54c0-1.7 1.4-3 3-3h88c1.6 0 3 1.3 3 3v54c0 1.7-1.4 3-3 3z" stroke="#7D7D7D"/></g><g transform="translate(19 2)"><polyline fill="url(#a)" points="57.1 0 0.1 0 0.1 57 57.1 57 57.1 38.2"/><g fill="#fff"><path d="M5.1 23.2l-1.1-2.7-1.1 2.7h2.2zm24.2-1.1c-.2.1-.5.1-.8.1h-1.9v-1.5h2c.3 0 .6 0 .8.1.2.1.3.3.3.6-.1.4-.2.6-.4.7zm13.8 1.1l-1.1-2.7-1.1 2.7h2.2zm-25.8 2.9h-1.6v-5.2l-2.3 5.2h-1.4l-2.3-5.3v5.3h-3.3l-.6-1.5h-3.3l-.6 1.5h-1.9l2.9-6.7h2.4l2.7 6.3v-6.3h2.6l2.1 4.5 1.9-4.5h2.7v6.7zm6.5 0h-5.4v-6.7h5.4v1.4h-3.7v1.2h3.7v1.4h-3.7v1.3h3.7v1.4zm7.6-4.9c0 1.1-.7 1.6-1.1 1.8.4.1.7.4.8.6.2.3.3.6.3 1.2v1.3h-1.6v-.8c0-.4 0-1-.3-1.3-.2-.2-.6-.3-1.2-.3h-1.7v2.4h-1.6v-6.7h3.7c.8 0 1.4 0 1.9.3s.8.7.8 1.5zm2.5 4.9h-1.6v-6.7h1.6v6.7zm19 0h-2.3l-3-5v5h-3.3l-.6-1.5h-3.3l-.6 1.5h-1.9c-.8 0-1.8-.2-2.3-.7-.6-.6-.9-1.3-.9-2.6 0-1 .2-1.9.9-2.6.5-.5 1.3-.8 2.4-.8h1.6v1.4h-1.6c-.6 0-.9.1-1.2.4-.3.3-.5.8-.5 1.5s.1 1.2.4 1.6c.2.3.7.3 1.1.3h.7l2.3-5.3h2.4l2.7 6.3v-6.3h2.4l2.8 4.7v-4.7h1.6v6.8h.2zm-52.9 1.3h2.7l.6-1.5h1.4l.6 1.5h5.4v-1.1l.5 1.1h2.8l.5-1.2v1.2h13.4v-2.4h.3c.2 0 .2 0 .2.3v2.1h6.9v-.6c.6.3 1.4.6 2.6.6h2.9l.6-1.5h1.4l.6 1.5h5.6v-1.4l.8 1.4h4.5v-9.3h-4.5v1.1l-.6-1.1h-4.6v1.1l-.6-1.1h-6.2c-1 0-1.9.1-2.7.5v-.5h-4.1v.5c-.5-.4-1.1-.5-1.8-.5h-15.6l-1 2.4-1.1-2.4h-4.9v1.1l-.5-1.1h-4.2l-1.9 4.4v4.9z"/><path d="M57 32.3h-3c-.3 0-.5 0-.6.1-.2.1-.2.3-.2.5 0 .3.1.4.4.5.2.1.4.1.6.1h.9c.9 0 1.5.2 1.8.5.1.1.1.1.1.2v-1.9zm0 4.5c-.4.6-1.1.9-2.2.9h-3.1v-1.4h3.1c.3 0 .5 0 .6-.2.1-.1.2-.3.2-.4 0-.2-.1-.4-.2-.4-.1-.3-.3-.3-.5-.3-1.5-.1-3.4 0-3.4-2.1 0-1 .6-2 2.3-2h3.2v-1.3h-3c-.9 0-1.5.2-2 .5v-.5h-4.4c-.7 0-1.5.2-1.9.5v-.5h-7.8v.5c-.6-.4-1.7-.5-2.2-.5h-5.2v.5c-.5-.5-1.6-.5-2.3-.5h-5.8l-1.2 1.4-1.2-1.4h-8.6v9.4h8.5l1.4-1.5 1.3 1.5h5.2v-2.2h.5c.7 0 1.5 0 2.2-.3v2.5h4.3v-2.4h.2c.3 0 .3 0 .3.3v2.2h13.1c.8 0 1.7-.2 2.2-.6v.6h4.2c.9 0 1.7-.1 2.3-.4v-1.9h-.1zm-6.4-2.7c.3.3.5.7.5 1.4 0 1.4-.9 2.1-2.5 2.1h-3.1v-1.4h3.1c.3 0 .5 0 .7-.2.1-.1.2-.3.2-.4 0-.2-.1-.4-.2-.4-.2-.2-.4-.2-.7-.2-1.5-.1-3.4 0-3.4-2.1 0-1 .6-2 2.3-2h3.2v1.4h-2.9c-.3 0-.5 0-.6.1-.2.1-.2.3-.2.5 0 .3.1.4.4.5.2.1.4.1.6.1h.9c.7.1 1.3.2 1.7.6zm-14.5-.4c-.2.1-.5.1-.8.1h-1.9v-1.5h2c.3 0 .6 0 .8.1.2.1.3.3.3.6s-.2.5-.4.7zm1 .8c.4.1.6.4.8.6.2.3.3.6.3 1.2v1.3h-1.6v-.8c0-.4 0-1-.3-1.3-.2-.2-.6-.3-1.2-.3h-1.7v2.4h-1.6v-6.7h3.7c.8 0 1.4 0 1.9.3s.8.7.8 1.5c0 1.1-.7 1.6-1.1 1.8zm2-3.6h5.3v1.4h-3.8v1.2h3.7v1.4h-3.7v1.3h3.8v1.4h-5.3v-6.7zm-10.8 3.1h-2.1v-1.7h2.1c.6 0 1 .2 1 .8 0 .6-.4.9-1 .9zm-3.7 3l-2.5-2.7 2.5-2.6v5.3zm-6.3-.8h-3.9v-1.3h3.5v-1.4h-3.5v-1.2h4l1.8 2-1.9 1.9zm12.7-3.1c0 1.9-1.4 2.2-2.8 2.2h-2v2.2h-3.1l-2-2.2-2.1 2.2h-6.3v-6.7h6.4l2 2.2 2-2.2h5.1c1.4.1 2.8.5 2.8 2.3z"/></g></g></g></svg>