<?xml version="1.0" encoding="UTF-8" standalone="no"?>
<svg width="96px" height="62px" viewBox="0 0 96 62" version="1.1" xmlns="http://www.w3.org/2000/svg" xmlns:xlink="http://www.w3.org/1999/xlink">
    <!-- Generator: Sketch 3.8.3 (29802) - http://www.bohemiancoding.com/sketch -->
    <title>card-discover</title>
    <desc>Created with Sketch.</desc>
    <defs>
        <polygon id="path-1" points="6.81481481 28.4425805 84.9797019 28.4425805 84.9797019 15.6362672 6.81481481 15.6362672"></polygon>
        <linearGradient x1="17.3725062%" y1="14.5500472%" x2="86.6023809%" y2="83.8349536%" id="linearGradient-3">
            <stop stop-color="#E15B26" offset="0%"></stop>
            <stop stop-color="#F9A11F" offset="100%"></stop>
        </linearGradient>
        <ellipse id="path-4" cx="47.6355349" cy="22.1840001" rx="6.2355557" ry="6.16971443"></ellipse>
        <filter x="-50%" y="-50%" width="200%" height="200%" filterUnits="objectBoundingBox" id="filter-5">
            <feGaussianBlur stdDeviation="1" in="SourceAlpha" result="shadowBlurInner1"></feGaussianBlur>
            <feOffset dx="0" dy="0" in="shadowBlurInner1" result="shadowOffsetInner1"></feOffset>
            <feComposite in="shadowOffsetInner1" in2="SourceAlpha" operator="arithmetic" k2="-1" k3="1" result="shadowInnerInner1"></feComposite>
            <feColorMatrix values="0 0 0 0 0   0 0 0 0 0   0 0 0 0 0  0 0 0 0.4 0" type="matrix" in="shadowInnerInner1"></feColorMatrix>
        </filter>
    </defs>
    <g id="Icons-+-Colors" stroke="none" stroke-width="1" fill="none" fill-rule="evenodd">
        <g id="Icons" transform="translate(-755.000000, -664.000000)">
            <g id="card-discover" transform="translate(756.000000, 665.000000)">
                <g id="icon_cc-discover-copy" transform="translate(2.000000, 1.000000)">
                    <g id="Group" fill="#FFFFFF">
                        <path d="M91.3268293,55.7409524 C91.3268293,57.3142857 89.9804878,58.6628571 88.4097561,58.6628571 L2.91707317,58.6628571 C1.34634146,58.6628571 0,57.3142857 0,55.7409524 L0,3.37142857 C0,1.79809524 1.34634146,0.44952381 2.91707317,0.44952381 L88.4097561,0.44952381 C89.9804878,0.44952381 91.3268293,1.79809524 91.3268293,3.37142857 L91.3268293,55.7409524 L91.3268293,55.7409524 Z" id="Shape"></path>
                    </g>
                    <path d="M20.1037245,58.8546798 L89.1125799,58.8546798 C90.5190836,58.8546798 91.6592801,57.7024998 91.6592801,56.2909992 L91.6592801,33.5689655 C91.6592801,33.5689655 66.3880512,51.0368695 20.1037245,58.8546798 Z" id="Fill-2" fill="#F5811F"></path>
                    <path d="M13.1748093,25.0195807 C12.4169105,25.685961 11.4320243,25.9766014 9.87321852,25.9766014 L9.22570723,25.9766014 L9.22570723,18.0167748 L9.87321852,18.0167748 C11.4320243,18.0167748 12.3782032,18.2883492 13.1748093,18.9905364 C14.009167,19.7131846 14.5109285,20.833894 14.5109285,21.98669 C14.5109285,23.1422763 14.009167,24.2969324 13.1748093,25.0195807 L13.1748093,25.0195807 Z M10.3563432,15.9776418 L6.8148626,15.9776418 L6.8148626,28.0138743 L10.3377063,28.0138743 C12.2109493,28.0138743 13.5637939,27.5841915 14.7508183,26.6243807 C16.1619629,25.4883255 16.9963206,23.7756398 16.9963206,22.004361 C16.9963206,18.4520378 14.2691273,15.9776418 10.3563432,15.9776418 L10.3563432,15.9776418 Z" id="Fill-1" fill="#221F20"></path>
                    <mask id="mask-2" fill="white">
                        <use xlink:href="#path-1"></use>
                    </mask>
                    <g id="Clip-4"></g>
                    <polygon id="Fill-3" fill="#221F20" mask="url(#mask-2)" points="18.1063604 28.0142928 20.5191165 28.0142928 20.5191165 15.9775953 18.1063604 15.9775953"></polygon>
                    <path d="M26.4185895,20.5964059 C24.9706491,20.0751133 24.5458244,19.7314601 24.5458244,19.0808906 C24.5458244,18.3229005 25.3032453,17.746735 26.3430864,17.746735 C27.0656229,17.746735 27.6600909,18.0359803 28.2884874,18.7214266 L29.551015,17.1129064 C28.5135633,16.2298246 27.2725398,15.7787507 25.9163501,15.7787507 C23.7277142,15.7787507 22.0585209,17.2575291 22.0585209,19.2273734 C22.0585209,20.8856512 22.8355344,21.7347862 25.101585,22.5281182 C26.0463303,22.8527054 26.5270656,23.0684768 26.7693447,23.2135645 C27.2515136,23.5200158 27.492837,23.9538837 27.492837,24.4593655 C27.492837,25.4345222 26.6962309,26.1571704 25.619594,26.1571704 C24.4688876,26.1571704 23.5418235,25.5968158 22.9865407,24.5514404 L21.427735,26.0120828 C22.5392562,27.6001419 23.8744197,28.3037241 25.710389,28.3037241 C28.2172851,28.3037241 29.9763176,26.6812532 29.9763176,24.3514798 C29.9763176,22.4388335 29.1629861,21.5734227 26.4185895,20.5964059" id="Fill-5" fill="#221F20" mask="url(#mask-2)"></path>
                    <path d="M30.7373704,22.004175 C30.7373704,25.5420824 33.5921545,28.2852627 37.2660045,28.2852627 C38.3044119,28.2852627 39.1942023,28.0866971 40.2909097,27.5840055 L40.2909097,24.8203641 C39.3265718,25.7597139 38.4721436,26.138709 37.3783035,26.138709 C34.9483442,26.138709 33.2237182,24.4241632 33.2237182,21.986504 C33.2237182,19.6757967 35.0028211,17.8529001 37.2660045,17.8529001 C38.4167109,17.8529001 39.2878645,18.2523563 40.2909097,19.2070518 L40.2909097,16.4448055 C39.2319539,15.9221178 38.3612782,15.7054164 37.3228708,15.7054164 C33.6676576,15.7054164 30.7373704,18.5043996 30.7373704,22.004175" id="Fill-6" fill="#221F20" mask="url(#mask-2)"></path>
                    <polygon id="Fill-7" fill="#221F20" mask="url(#mask-2)" points="59.420687 24.0625135 56.1224413 15.9775953 53.4865208 15.9775953 58.7354241 28.3230692 60.0337918 28.3230692 65.377313 15.9775953 62.7619408 15.9775953"></polygon>
                    <polygon id="Fill-8" fill="#221F20" mask="url(#mask-2)" points="66.4682859 28.0140603 73.3104015 28.0140603 73.3104015 25.9763224 68.8791305 25.9763224 68.8791305 22.7271953 73.1474485 22.7271953 73.1474485 20.6885273 68.8791305 20.6885273 68.8791305 18.0169608 73.3104015 18.0169608 73.3104015 15.9773628 66.4682859 15.9773628"></polygon>
                    <path d="M78.0229935,21.5189683 L77.318138,21.5189683 L77.318138,17.8736402 L78.0612229,17.8736402 C79.5641182,17.8736402 80.3807948,18.4860776 80.3807948,19.6574747 C80.3807948,20.8674688 79.5641182,21.5189683 78.0229935,21.5189683 M82.8633196,19.530988 C82.8633196,17.2774786 81.2681958,15.9772698 78.4860477,15.9772698 L74.9082491,15.9772698 L74.9082491,28.0139673 L77.318138,28.0139673 L77.318138,23.1786412 L77.6330531,23.1786412 L80.9723955,28.0139673 L83.9394786,28.0139673 L80.0453313,22.9433387 C81.8626638,22.5834097 82.8633196,21.3738806 82.8633196,19.530988" id="Fill-12" fill="#221F20" mask="url(#mask-2)"></path>
                    <path d="M83.9459298,16.5744079 L83.9019659,16.5744079 L83.9019659,16.2977182 L83.948797,16.2977182 C84.0773435,16.2977182 84.1437672,16.3428256 84.1437672,16.4339704 C84.1437672,16.5274404 84.0763878,16.5744079 83.9459298,16.5744079 M84.4032496,16.4297852 C84.4032496,16.2191291 84.2541547,16.103803 83.9918051,16.103803 L83.6424836,16.103803 L83.6424836,17.161734 L83.9019659,17.161734 L83.9019659,16.7511172 L84.2063679,17.161734 L84.5231945,17.161734 L84.1657491,16.7255409 C84.3186669,16.6850837 84.4032496,16.576733 84.4032496,16.4297852" id="Fill-14" fill="#221F20" mask="url(#mask-2)"></path>
                    <g id="Oval-65" mask="url(#mask-2)">
                        <use fill="url(#linearGradient-3)" fill-rule="evenodd" xlink:href="#path-4"></use>
                        <use fill="black" fill-opacity="1" filter="url(#filter-5)" xlink:href="#path-4"></use>
                    </g>
                </g>
                <path d="M91,60 L3,60 C1.4,60 0,58.7 0,57 L0,3 C0,1.3 1.4,0 3,0 L91,0 C92.6,0 94,1.3 94,3 L94,12 L94,57 C94,58.7 92.6,60 91,60 Z" id="Shape" stroke="#7D7D7D"></path>
                <circle id="Oval-67" stroke="#000000" stroke-width="0.14" cx="86" cy="17.6599731" r="1"></circle>
            </g>
        </g>
    </g>
</svg>