<?xml version="1.0" encoding="utf-8"?>
<!-- Generator: Adobe Illustrator 17.0.0, SVG Export Plug-In . SVG Version: 6.00 Build 0)  -->
<!DOCTYPE svg PUBLIC "-//W3C//DTD SVG 1.1//EN" "http://www.w3.org/Graphics/SVG/1.1/DTD/svg11.dtd">
<svg version="1.1" id="Layer_1" xmlns="http://www.w3.org/2000/svg" xmlns:xlink="http://www.w3.org/1999/xlink" x="0px" y="0px"
	 width="95px" height="61px" viewBox="0 0 95 61" enable-background="new 0 0 95 61" xml:space="preserve">
<g>
	<g>
		<path fill="#FFFFFF" d="M94.5,57.5c0,1.7-1.3,3-3,3h-88c-1.6,0-3-1.3-3-3v-54c0-1.7,1.4-3,3-3h88c1.7,0,3,1.3,3,3V57.5z"/>
		<path fill="none" stroke="#BBBDBF" stroke-miterlimit="10" d="M94.5,57.5c0,1.7-1.3,3-3,3h-88c-1.6,0-3-1.3-3-3v-54
			c0-1.7,1.4-3,3-3h88c1.7,0,3,1.3,3,3V57.5z"/>
	</g>
	<g>
		<polygon fill="#00589F" points="36.2,40.9 39.7,20.1 45.4,20.1 41.8,40.9 		"/>
		<path fill="#00589F" d="M62.4,20.6c-1.1-0.4-2.9-0.9-5.1-0.9c-5.6,0-9.5,2.8-9.6,6.9c0,3,2.8,4.7,5,5.6c2.2,1,2.9,1.7,2.9,2.6
			c0,1.4-1.8,2-3.4,2c-2.3,0-3.5-0.3-5.3-1.1l-0.7-0.3l-0.8,4.7c1.3,0.6,3.8,1.1,6.3,1.1c6,0,9.8-2.8,9.9-7.1c0-2.4-1.5-4.2-4.8-5.6
			c-2-1-3.2-1.6-3.2-2.6c0-0.9,1-1.8,3.2-1.8c1.9,0,3.2,0.4,4.2,0.8l0.5,0.2L62.4,20.6"/>
		<path fill="#00589F" d="M76.9,20.2h-4.4c-1.4,0-2.4,0.4-3,1.7l-8.4,19.1h6c0,0,1-2.6,1.2-3.1c0.7,0,6.4,0,7.3,0
			c0.2,0.7,0.7,3.1,0.7,3.1h5.3L76.9,20.2 M69.9,33.6c0.5-1.2,2.3-5.8,2.3-5.8c0,0.1,0.5-1.2,0.8-2l0.4,1.8c0,0,1.1,5,1.3,6H69.9z"
			/>
		<path fill="#00589F" d="M31.4,20.1l-5.5,14.2l-0.6-2.9c-1-3.3-4.3-6.9-7.8-8.7l5.1,18.2l6,0l8.9-20.8H31.4"/>
		<path fill="#F9A51A" d="M20.7,20.1h-9.1l-0.1,0.4c7.1,1.7,11.8,5.9,13.8,10.9l-2-9.6C22.9,20.6,21.9,20.2,20.7,20.1"/>
	</g>
</g>
</svg>
